HIERARCHY
ROOT root
{
	OFFSET	0	13.1	24.9
	CHANNELS 6  Xposition Yposition Zposition Xrotation Yrotation Zrotation
	JOINT spine_1
	{
		OFFSET	0	9.99999	0
		CHANNELS 3  Xrotation Yrotation Zrotation
		JOINT spine_2
		{
			OFFSET	0	112	-10
			CHANNELS 3  Xrotation Yrotation Zrotation
			JOINT spine_3
			{
				OFFSET	0	206.5	19.3
				CHANNELS 3  Xrotation Yrotation Zrotation
				JOINT spine_4
				{
					OFFSET	0	110.4	14.6
					CHANNELS 3  Xrotation Yrotation Zrotation
					JOINT neck_1
					{
						OFFSET	0	71.8	-50.3
						CHANNELS 3  Xrotation Yrotation Zrotation
						JOINT neck_2
						{
							OFFSET	0	86.2	-25.8
							CHANNELS 3  Xrotation Yrotation Zrotation
							JOINT head_ee
							{
								OFFSET	0	179.8	-8.7
								CHANNELS 3  Xrotation Yrotation Zrotation
								End Site
								{
									OFFSET	1	0	0
								}
							}
						}
					}
					JOINT left_clavicle
					{
						OFFSET	-43.2	22.4	-70.8
						CHANNELS 3  Xrotation Yrotation Zrotation
						JOINT left_shoulder
						{
							OFFSET	-93.9	-5.79999	48.7
							CHANNELS 3  Xrotation Yrotation Zrotation
							JOINT left_elbow
							{
								OFFSET	-291.4	-30.8	15.2
								CHANNELS 3  Xrotation Yrotation Zrotation
								JOINT left_lowarm_twist
								{
									OFFSET	-110.7	-3.89999	13.6
									CHANNELS 3  Xrotation Yrotation Zrotation
									JOINT left_hand
									{
										OFFSET	-110.7	-3.89999	13.6
										CHANNELS 3  Xrotation Yrotation Zrotation
										JOINT left_ee
										{
											OFFSET	-80.8	-5.10001	12.1
											CHANNELS 3  Xrotation Yrotation Zrotation
											End Site
											{
												OFFSET	1	0	0
											}
										}
									}
								}
							}
						}
					}
					JOINT right_clavicle
					{
						OFFSET	43.2	22.4	-70.8
						CHANNELS 3  Xrotation Yrotation Zrotation
						JOINT right_shoulder
						{
							OFFSET	93.9	-5.79999	48.7
							CHANNELS 3  Xrotation Yrotation Zrotation
							JOINT right_elbow
							{
								OFFSET	291.4	-30.8	15.2
								CHANNELS 3  Xrotation Yrotation Zrotation
								JOINT right_lowarm_twist
								{
									OFFSET	110.7	-3.89999	13.6
									CHANNELS 3  Xrotation Yrotation Zrotation
									JOINT right_hand
									{
										OFFSET	110.7	-3.89999	13.6
										CHANNELS 3  Xrotation Yrotation Zrotation
										JOINT right_ee
										{
											OFFSET	80.8	-5.10001	12.1
											CHANNELS 3  Xrotation Yrotation Zrotation
											End Site
											{
												OFFSET	1	0	0
											}
										}
									}
								}
							}
						}
					}
				}
			}
		}
	}
	JOINT left_hip
	{
		OFFSET	-82.8	-127.5	0.300001
		CHANNELS 3  Xrotation Yrotation Zrotation
		JOINT left_knee
		{
			OFFSET	-28.2	-396.7	2.2
			CHANNELS 3  Xrotation Yrotation Zrotation
			JOINT left_ankle
			{
				OFFSET	-11.7	-411.3	35.4
				CHANNELS 3  Xrotation Yrotation Zrotation
				JOINT left_toes
				{
					OFFSET	0	-60	-88.6
					CHANNELS 3  Xrotation Yrotation Zrotation
					JOINT left_foot_ee
					{
						OFFSET	-22.5	-16.5	-42.2
						CHANNELS 3  Xrotation Yrotation Zrotation
						End Site
						{
							OFFSET	1	0	0
						}
					}
				}
			}
		}
	}
	JOINT right_hip
	{
		OFFSET	82.8	-127.5	0.300001
		CHANNELS 3  Xrotation Yrotation Zrotation
		JOINT right_knee
		{
			OFFSET	28.2	-396.7	2.2
			CHANNELS 3  Xrotation Yrotation Zrotation
			JOINT right_ankle
			{
				OFFSET	11.7	-411.3	35.4
				CHANNELS 3  Xrotation Yrotation Zrotation
				JOINT right_toes
				{
					OFFSET	0	-60	-88.6
					CHANNELS 3  Xrotation Yrotation Zrotation
					JOINT right_foot_ee
					{
						OFFSET	22.5	-16.5	-42.2
						CHANNELS 3  Xrotation Yrotation Zrotation
						End Site
						{
							OFFSET	1	0	0
						}
					}
				}
			}
		}
	}
}
MOTION
Frames: 11
Frame Time: 0.02
3369.82 729.754 -575.492 -16.4928 48.5463 15.1561 3.62054 0.337709 -0.262886 3.62051 0.353753 -0.240864 3.61903 0.385515 -0.185834 3.61916 0.351328 -0.244387 1.27697 6.74947 -6.46539 1.74274 17.2849 -6.52675 -0.0 0.0 -0.0 -4.54123 15.57 -5.4246 -3.54283 -26.9026 80.9801 0.342982 -9.64286 0.0289302 24.5884 0.20168 -3.11047 2.46613 -19.6322 8.0337 -0.0 0.0 -0.0 11.2765 21.9796 -22.128 -70.3847 63.262 -5.04334 0.860415 23.0847 -0.175719 -0.0448306 0.00158164 -0.00550692 2.57988 28.518 -4.39864 0.0 0.0 0.0 35.7573 6.6878 -6.71503 -61.0005 -2.30898 8.63474 20.2378 -1.12323 -2.78871 24.0342 -0.0 -0.0 -0.0 0.0 -0.0 21.072 13.0242 -8.01918 -5.96469 -0.199226 -0.893313 10.9458 7.64043 1.60885 -7.32458 0.0 0.0 0.0 0.0 0.0 
3358.09 728.527 -589.52 -17.4915 49.6904 16.6838 3.92926 0.240067 -0.169713 3.92924 0.25038 -0.154093 3.92857 0.269807 -0.116785 3.92864 0.247977 -0.157931 -0.2028 8.11733 -4.39065 0.139998 18.0549 -3.88297 -0.0 0.0 -0.0 -4.85287 15.599 -5.92271 -3.77416 -26.5395 80.9369 0.299938 -8.4514 0.0221614 24.6742 0.200036 -3.12131 2.44531 -19.9698 7.73316 -0.0 0.0 -0.0 11.5855 22.3078 -22.8035 -69.9809 62.7565 -3.10878 0.851404 22.8679 -0.172201 -0.64792 0.0232791 -0.0794691 2.39079 28.2388 -3.33695 0.0 0.0 0.0 41.3366 7.55032 -6.02952 -62.5436 -2.48082 8.79957 20.4502 -1.32305 -2.81648 23.3971 -0.0 -0.0 -0.0 0.0 -0.0 19.9525 12.7872 -9.12427 -6.94876 -0.223106 -1.04244 11.8194 7.66079 1.73144 -6.42309 0.0 0.0 0.0 0.0 0.0 
3341.88 728.53 -595.309 -18.8746 50.5712 17.5749 4.17793 0.165435 -0.147105 4.17792 0.174461 -0.13628 4.17751 0.191643 -0.110823 4.17754 0.171736 -0.139698 -2.4127 8.98373 -2.91005 -2.19073 18.5548 -1.84276 -0.0 0.0 -0.0 -5.14189 15.6775 -6.3725 -2.45301 -26.3701 82.9269 0.331966 -9.33869 0.0271139 24.7343 0.198874 -3.12889 2.40353 -19.6335 7.61529 -0.0 0.0 -0.0 11.9873 22.4768 -23.7074 -69.2113 62.9737 -1.05605 0.845143 22.7169 -0.169776 -1.23422 0.0451187 -0.151153 2.10019 27.3367 -1.92678 0.0 0.0 0.0 46.5003 6.78551 -8.59254 -64.707 -2.72912 9.02281 20.7021 -1.54073 -2.84926 23.0342 -0.0 -0.0 -0.0 0.0 -0.0 19.5543 12.658 -8.56163 -7.97387 -0.245253 -1.19819 12.441 6.91227 1.81158 -5.69721 0.0 0.0 0.0 0.0 0.0 
3327.11 721.13 -598.466 -19.6436 50.5178 17.7257 4.3437 0.115022 -0.125979 4.3437 0.122805 -0.118404 4.34345 0.137719 -0.100668 4.34345 0.120092 -0.121155 -4.24477 9.56605 -1.77573 -4.11506 18.8694 -0.280518 -0.0 0.0 -0.0 -5.48832 15.6506 -6.94343 -1.55819 -26.2054 84.1656 0.350791 -9.85815 0.0302528 24.9089 0.195456 -3.15093 2.38005 -19.396 7.57164 -0.0 0.0 -0.0 12.2084 22.6172 -24.2023 -67.9644 63.3581 0.840391 0.841807 22.6363 -0.168489 -1.75103 0.0649782 -0.214156 1.8758 26.739 -0.776824 0.0 0.0 0.0 49.11 6.18736 -9.25956 -66.3791 -2.92673 9.1889 20.8714 -1.69031 -2.87131 22.7783 -0.0 -0.0 -0.0 0.0 -0.0 19.2888 12.565 -8.20651 -8.69245 -0.259114 -1.30758 12.9009 6.32695 1.87015 -5.11594 0.0 0.0 0.0 0.0 0.0 
3314.29 722.306 -608.28 -18.7885 47.7916 15.5481 4.41213 0.0635204 -0.124233 4.41213 0.0712969 -0.119939 4.41198 0.0867639 -0.109273 4.41197 0.0684173 -0.121605 -5.64745 9.95368 -0.930603 -5.58427 19.0619 0.87691 -0.0 0.0 -0.0 -5.71824 15.4178 -7.38135 -0.550695 -26.0082 84.8405 0.370414 -10.3979 0.0337036 25.0826 0.191987 -3.17286 2.36339 -19.2466 7.53132 -0.0 0.0 -0.0 12.3505 22.6298 -24.5282 -67.0696 63.6869 2.23869 0.843247 22.6711 -0.169044 -2.11463 0.0792909 -0.258373 1.71343 26.332 0.0737043 0.0 0.0 0.0 51.8774 5.26352 -10.2292 -66.8823 -2.98715 9.23775 20.9761 -1.77076 -2.88484 22.5875 -0.0 -0.0 -0.0 0.0 -0.0 18.4587 12.6866 -7.54334 -9.53885 -0.273679 -1.43665 13.2678 5.92492 1.91714 -4.68658 0.0 0.0 0.0 0.0 0.0 
3295.72 712.939 -607.436 -16.2652 45.7434 12.9325 4.27557 0.0320801 -0.136887 4.27558 0.0407256 -0.134569 4.27547 0.0587396 -0.127738 4.27545 0.0378286 -0.135412 -7.90613 9.67786 1.08957 -7.93406 17.2959 3.18799 -0.0 0.0 -0.0 -6.09106 13.9574 -8.39872 1.20892 -25.4414 85.4342 0.440018 -12.2967 0.0474004 25.7227 0.178633 -3.25352 2.34602 -19.2409 7.418 -0.0 0.0 -0.0 12.2776 20.9086 -24.5048 -65.5265 64.4049 2.68 0.920705 24.5169 -0.200051 -3.50968 0.136805 -0.427173 1.46572 25.3547 1.21775 0.0 0.0 0.0 54.3089 2.87726 -10.7314 -63.4394 -2.5826 8.89312 16.3518 -0.558389 -2.29077 21.4562 -0.0 -0.0 -0.0 0.0 -0.0 17.853 13.5703 -7.10915 -11.2609 -0.297418 -1.69981 14.6158 1.88591 2.07019 -3.69256 0.0 0.0 0.0 0.0 0.0 
3284.07 720.323 -617.908 -14.5038 44.9746 11.733 4.1866 0.0442023 -0.22064 4.18663 0.0581526 -0.21738 4.18639 0.0876464 -0.207253 4.18633 0.0538147 -0.218494 -9.49669 9.1144 2.40128 -9.54821 15.4923 4.55873 -0.0 0.0 -0.0 -8.12576 15.2858 -11.4393 0.5807 -27.4254 85.2724 0.612051 -16.867 0.0907464 25.0125 0.193396 -3.164 2.59092 -21.2309 8.09228 -0.0 0.0 -0.0 12.4482 20.0388 -24.9631 -61.3403 65.8937 2.51687 0.935872 24.8722 -0.206388 -3.42576 0.133229 -0.417058 1.15961 22.88 2.0893 0.0 0.0 0.0 52.7718 -2.06742 -8.75355 -55.5197 -1.73611 8.01367 10.5659 -0.45567 -1.51475 20.9252 -0.0 -0.0 -0.0 0.0 -0.0 17.7439 14.1607 -6.93963 -11.6491 -0.301675 -1.75921 17.1339 -2.28937 2.37859 -3.40172 0.0 0.0 0.0 0.0 0.0 
3273.88 706.372 -618.271 -13.8576 44.776 10.8805 4.11832 0.0893932 -0.256728 4.11835 0.105548 -0.250519 4.11786 0.139448 -0.233355 4.1178 0.100844 -0.25245 -10.53 8.40412 4.27365 -10.5458 13.0103 6.3118 -0.0 0.0 -0.0 -10.2215 17.2888 -14.2551 -0.932691 -30.3576 87.9617 0.907621 -24.2088 0.194654 22.7158 0.23352 -2.87339 2.28792 -23.935 4.7849 -0.0 0.0 -0.0 13.1847 22.5355 -26.469 -51.3808 65.3278 -4.35649 0.840961 22.6158 -0.168164 -4.09562 0.162187 -0.497651 0.487127 19.243 4.9351 0.0 0.0 0.0 51.964 -6.2652 -6.6565 -49.5656 -1.18455 7.28118 4.02717 0.660422 -0.588355 23.1169 -0.0 -0.0 -0.0 0.0 -0.0 17.467 16.6505 -7.03574 -12.4144 -0.30889 -1.87642 27.7123 -7.87289 3.63985 -7.47578 0.0 0.0 0.0 0.0 0.0 
3252.34 699.428 -620.768 -14.2753 44.3624 9.95675 4.068 0.122132 -0.28706 4.06803 0.140151 -0.278706 4.06733 0.17787 -0.256285 4.06726 0.135162 -0.281159 -9.421 8.32105 7.81399 -9.28442 10.2763 9.61858 -0.0 0.0 -0.0 -11.7133 17.5366 -16.7209 -1.83034 -31.7218 90.8032 1.21119 -30.9621 0.335474 20.5667 0.260487 -2.60022 2.05021 -26.4523 2.03261 -0.0 0.0 -0.0 13.0898 24.6573 -26.0364 -42.8079 65.0722 -11.0741 0.847494 22.7736 -0.170685 -5.52499 0.227122 -0.668475 -0.547065 16.6358 10.7823 0.0 0.0 0.0 50.6097 -9.16281 -5.30056 -44.9962 -0.814824 6.68308 -2.78257 2.36855 0.412113 27.4094 -0.0 -0.0 -0.0 0.0 -0.0 14.6785 19.2765 -5.11119 -12.9502 -0.313009 -1.95852 39.1664 -13.5487 4.83738 -9.90942 0.0 0.0 0.0 0.0 0.0 
3234.7 693.241 -627.365 -14.0167 43.4418 9.29095 3.98131 0.134737 -0.323975 3.98136 0.155079 -0.314745 3.98048 0.198146 -0.289572 3.98039 0.149927 -0.317232 -7.93093 8.19602 10.1728 -7.66141 8.07112 11.8208 -0.0 0.0 -0.0 -12.0474 17.6542 -17.2526 -3.94162 -32.5028 91.5338 1.36279 -34.021 0.416938 18.1903 0.278357 -2.29724 1.82044 -28.7948 -0.550529 -0.0 0.0 -0.0 12.9843 26.121 -25.6265 -35.5427 65.1638 -17.4994 0.885307 23.6798 -0.185597 -6.52442 0.275053 -0.786943 -1.59879 14.5683 17.1696 0.0 0.0 0.0 49.0156 -12.8991 -3.31112 -39.1049 -0.410807 5.87258 -9.51525 9.1875 1.41768 30.5871 -0.0 -0.0 -0.0 0.0 -0.0 12.8275 22.8015 -3.8888 -11.4529 -0.299574 -1.72918 42.4589 -17.9926 5.20309 -8.26079 0.0 0.0 0.0 0.0 0.0 
3203.26 704.727 -640.546 -13.7448 42.6351 8.19093 3.8735 0.144989 -0.314681 3.87354 0.164719 -0.304817 3.87264 0.206805 -0.277989 3.87257 0.160307 -0.307161 -5.60285 8.8206 11.4578 -5.25436 7.7208 13.1642 -0.0 0.0 -0.0 -11.2751 15.5335 -16.8431 -4.94227 -31.7379 91.4335 1.44461 -35.5861 0.463644 17.0838 0.282387 -2.15596 1.43277 -28.6732 -2.95081 -0.0 0.0 -0.0 13.3898 26.8919 -26.47 -32.8429 64.3602 -21.2207 0.861011 23.099 -0.175953 -7.14609 0.305909 -0.860211 -2.34664 13.9293 22.2209 0.0 0.0 0.0 48.3191 -17.0753 -0.814683 -34.0043 -0.13002 5.14112 -13.7808 17.2174 2.08632 32.9173 -0.0 -0.0 -0.0 0.0 -0.0 11.4386 28.0539 -3.03799 -11.1357 -0.295958 -1.68065 42.4168 -20.7946 5.26616 -4.60927 0.0 0.0 0.0 0.0 0.0 
